<mxfile host="Electron" modified="2024-03-15T06:09:36.091Z" agent="Mozilla/5.0 (Windows NT 10.0; Win64; x64) AppleWebKit/537.36 (KHTML, like Gecko) draw.io/21.7.5 Chrome/114.0.5735.289 Electron/25.8.1 Safari/537.36" etag="YA1bZwV4qPK4sIV6_7RB" version="21.7.5" type="device">
  <diagram name="Page-1" id="IOapeXRwTuUWi-dIo0kQ">
    <mxGraphModel dx="1293" dy="756" grid="1" gridSize="10" guides="1" tooltips="1" connect="1" arrows="1" fold="1" page="1" pageScale="1" pageWidth="850" pageHeight="1100" math="0" shadow="0">
      <root>
        <mxCell id="0" />
        <mxCell id="1" parent="0" />
        <mxCell id="ycMpsAOuZf68Req7lLvs-45" value="" style="html=1;dashed=0;whiteSpace=wrap;fillColor=none;movable=1;resizable=1;rotatable=1;deletable=1;editable=1;locked=0;connectable=1;" parent="1" vertex="1">
          <mxGeometry x="480" width="240" height="840" as="geometry" />
        </mxCell>
        <mxCell id="ycMpsAOuZf68Req7lLvs-46" value="" style="html=1;dashed=0;whiteSpace=wrap;fillColor=none;movable=1;resizable=1;rotatable=1;deletable=1;editable=1;locked=0;connectable=1;" parent="1" vertex="1">
          <mxGeometry x="720" width="290" height="840" as="geometry" />
        </mxCell>
        <mxCell id="ycMpsAOuZf68Req7lLvs-43" value="" style="html=1;dashed=0;whiteSpace=wrap;fillColor=none;movable=1;resizable=1;rotatable=1;deletable=1;editable=1;locked=0;connectable=1;" parent="1" vertex="1">
          <mxGeometry x="240" width="240" height="840" as="geometry" />
        </mxCell>
        <mxCell id="ycMpsAOuZf68Req7lLvs-21" value="Registered Vehicle Renter" style="text;html=1;strokeColor=none;fillColor=none;align=center;verticalAlign=middle;whiteSpace=wrap;rounded=0;" parent="1" vertex="1">
          <mxGeometry x="305" y="10" width="110" height="30" as="geometry" />
        </mxCell>
        <mxCell id="ycMpsAOuZf68Req7lLvs-24" value="" style="ellipse;html=1;shape=startState;fillColor=#000000;strokeColor=#ff0000;" parent="1" vertex="1">
          <mxGeometry x="345" y="55" width="30" height="30" as="geometry" />
        </mxCell>
        <mxCell id="ycMpsAOuZf68Req7lLvs-25" value="" style="edgeStyle=orthogonalEdgeStyle;html=1;verticalAlign=bottom;endArrow=open;endSize=8;strokeColor=#ff0000;rounded=0;" parent="1" source="ycMpsAOuZf68Req7lLvs-24" edge="1">
          <mxGeometry relative="1" as="geometry">
            <mxPoint x="360" y="120" as="targetPoint" />
          </mxGeometry>
        </mxCell>
        <mxCell id="ycMpsAOuZf68Req7lLvs-27" value="" style="edgeStyle=orthogonalEdgeStyle;html=1;verticalAlign=bottom;endArrow=open;endSize=8;strokeColor=#ff0000;rounded=0;entryX=0.5;entryY=0;entryDx=0;entryDy=0;" parent="1" edge="1">
          <mxGeometry relative="1" as="geometry">
            <mxPoint x="359.97" y="200" as="targetPoint" />
            <mxPoint x="360" y="160" as="sourcePoint" />
          </mxGeometry>
        </mxCell>
        <mxCell id="ycMpsAOuZf68Req7lLvs-47" value="Vehicle Owner" style="text;html=1;strokeColor=none;fillColor=none;align=center;verticalAlign=middle;whiteSpace=wrap;rounded=0;" parent="1" vertex="1">
          <mxGeometry x="545" y="10" width="110" height="30" as="geometry" />
        </mxCell>
        <mxCell id="ycMpsAOuZf68Req7lLvs-48" value="System" style="text;html=1;strokeColor=none;fillColor=none;align=center;verticalAlign=middle;whiteSpace=wrap;rounded=0;" parent="1" vertex="1">
          <mxGeometry x="785" y="10" width="110" height="30" as="geometry" />
        </mxCell>
        <mxCell id="CGK39F_u_S3hTzvkllJn-3" value="Book a vehicle" style="html=1;shape=mxgraph.sysml.callBehAct;whiteSpace=wrap;align=center;fillColor=#FFFFC0;strokeColor=#FF0000;" parent="1" vertex="1">
          <mxGeometry x="284.97" y="120" width="150" height="40" as="geometry" />
        </mxCell>
        <mxCell id="CGK39F_u_S3hTzvkllJn-5" value="Get Vehicle from Owner" style="rounded=1;whiteSpace=wrap;html=1;arcSize=40;fontColor=#000000;fillColor=#ffffc0;strokeColor=#ff0000;" parent="1" vertex="1">
          <mxGeometry x="300" y="200" width="120" height="40" as="geometry" />
        </mxCell>
        <mxCell id="CGK39F_u_S3hTzvkllJn-6" value="" style="edgeStyle=orthogonalEdgeStyle;html=1;verticalAlign=bottom;endArrow=open;endSize=8;strokeColor=#ff0000;rounded=0;entryX=0.5;entryY=0;entryDx=0;entryDy=0;" parent="1" source="CGK39F_u_S3hTzvkllJn-5" target="CGK39F_u_S3hTzvkllJn-7" edge="1">
          <mxGeometry relative="1" as="geometry">
            <mxPoint x="360" y="300" as="targetPoint" />
            <Array as="points">
              <mxPoint x="620" y="220" />
            </Array>
          </mxGeometry>
        </mxCell>
        <mxCell id="CGK39F_u_S3hTzvkllJn-7" value="Enter Vehicle meter" style="rounded=1;whiteSpace=wrap;html=1;arcSize=40;fontColor=#000000;fillColor=#ffffc0;strokeColor=#ff0000;" parent="1" vertex="1">
          <mxGeometry x="560" y="240" width="120" height="40" as="geometry" />
        </mxCell>
        <mxCell id="CGK39F_u_S3hTzvkllJn-8" value="" style="edgeStyle=orthogonalEdgeStyle;html=1;verticalAlign=bottom;endArrow=open;endSize=8;strokeColor=#ff0000;rounded=0;exitX=1;exitY=0.5;exitDx=0;exitDy=0;" parent="1" source="CGK39F_u_S3hTzvkllJn-9" target="CGK39F_u_S3hTzvkllJn-7" edge="1">
          <mxGeometry relative="1" as="geometry">
            <mxPoint x="610" y="300" as="targetPoint" />
          </mxGeometry>
        </mxCell>
        <mxCell id="CGK39F_u_S3hTzvkllJn-9" value="Return Vehicle" style="rounded=1;whiteSpace=wrap;html=1;arcSize=40;fontColor=#000000;fillColor=#ffffc0;strokeColor=#ff0000;" parent="1" vertex="1">
          <mxGeometry x="300" y="300" width="120" height="40" as="geometry" />
        </mxCell>
        <mxCell id="CGK39F_u_S3hTzvkllJn-10" value="" style="edgeStyle=orthogonalEdgeStyle;html=1;verticalAlign=bottom;endArrow=open;endSize=8;strokeColor=#ff0000;rounded=0;exitX=0.5;exitY=1;exitDx=0;exitDy=0;" parent="1" source="CGK39F_u_S3hTzvkllJn-5" target="CGK39F_u_S3hTzvkllJn-9" edge="1">
          <mxGeometry relative="1" as="geometry">
            <mxPoint x="369.97" y="210" as="targetPoint" />
            <mxPoint x="370" y="170" as="sourcePoint" />
          </mxGeometry>
        </mxCell>
        <mxCell id="CGK39F_u_S3hTzvkllJn-11" value="Calculate Bill acording to vehicle meter" style="rounded=1;whiteSpace=wrap;html=1;arcSize=40;fontColor=#000000;fillColor=#ffffc0;strokeColor=#ff0000;" parent="1" vertex="1">
          <mxGeometry x="785" y="240" width="120" height="40" as="geometry" />
        </mxCell>
        <mxCell id="CGK39F_u_S3hTzvkllJn-12" value="" style="edgeStyle=orthogonalEdgeStyle;html=1;verticalAlign=bottom;endArrow=open;endSize=8;strokeColor=#ff0000;rounded=0;entryX=0.5;entryY=0;entryDx=0;entryDy=0;" parent="1" source="CGK39F_u_S3hTzvkllJn-11" target="CGK39F_u_S3hTzvkllJn-14" edge="1">
          <mxGeometry relative="1" as="geometry">
            <mxPoint x="845" y="340" as="targetPoint" />
          </mxGeometry>
        </mxCell>
        <mxCell id="CGK39F_u_S3hTzvkllJn-13" value="" style="edgeStyle=orthogonalEdgeStyle;html=1;verticalAlign=bottom;endArrow=open;endSize=8;strokeColor=#ff0000;rounded=0;exitX=1;exitY=0.5;exitDx=0;exitDy=0;entryX=0;entryY=0.5;entryDx=0;entryDy=0;" parent="1" source="CGK39F_u_S3hTzvkllJn-7" target="CGK39F_u_S3hTzvkllJn-11" edge="1">
          <mxGeometry relative="1" as="geometry">
            <mxPoint x="855" y="350" as="targetPoint" />
            <mxPoint x="855" y="290" as="sourcePoint" />
          </mxGeometry>
        </mxCell>
        <mxCell id="CGK39F_u_S3hTzvkllJn-14" value="Display Bill" style="rounded=1;whiteSpace=wrap;html=1;arcSize=40;fontColor=#000000;fillColor=#ffffc0;strokeColor=#ff0000;" parent="1" vertex="1">
          <mxGeometry x="785" y="360" width="120" height="40" as="geometry" />
        </mxCell>
        <mxCell id="CGK39F_u_S3hTzvkllJn-15" value="Select Payment type" style="rounded=1;whiteSpace=wrap;html=1;arcSize=40;fontColor=#000000;fillColor=#ffffc0;strokeColor=#ff0000;" parent="1" vertex="1">
          <mxGeometry x="299.97" y="360" width="120" height="40" as="geometry" />
        </mxCell>
        <mxCell id="CGK39F_u_S3hTzvkllJn-16" value="" style="edgeStyle=orthogonalEdgeStyle;html=1;verticalAlign=bottom;endArrow=open;endSize=8;strokeColor=#ff0000;rounded=0;entryX=0.5;entryY=0;entryDx=0;entryDy=0;" parent="1" source="CGK39F_u_S3hTzvkllJn-15" target="CGK39F_u_S3hTzvkllJn-18" edge="1">
          <mxGeometry relative="1" as="geometry">
            <mxPoint x="359.97" y="460" as="targetPoint" />
            <Array as="points">
              <mxPoint x="360" y="430" />
              <mxPoint x="360" y="430" />
            </Array>
          </mxGeometry>
        </mxCell>
        <mxCell id="CGK39F_u_S3hTzvkllJn-17" value="" style="edgeStyle=orthogonalEdgeStyle;html=1;verticalAlign=bottom;endArrow=open;endSize=8;strokeColor=#ff0000;rounded=0;entryX=1;entryY=0.5;entryDx=0;entryDy=0;" parent="1" source="CGK39F_u_S3hTzvkllJn-14" target="CGK39F_u_S3hTzvkllJn-15" edge="1">
          <mxGeometry relative="1" as="geometry">
            <mxPoint x="855" y="350" as="targetPoint" />
            <mxPoint x="855" y="290" as="sourcePoint" />
          </mxGeometry>
        </mxCell>
        <mxCell id="CGK39F_u_S3hTzvkllJn-18" value="Enter Payment details" style="rounded=1;whiteSpace=wrap;html=1;arcSize=40;fontColor=#000000;fillColor=#ffffc0;strokeColor=#ff0000;" parent="1" vertex="1">
          <mxGeometry x="300" y="440" width="120" height="40" as="geometry" />
        </mxCell>
        <mxCell id="CGK39F_u_S3hTzvkllJn-26" value="Make payment" style="rounded=1;whiteSpace=wrap;html=1;arcSize=40;fontColor=#000000;fillColor=#ffffc0;strokeColor=#ff0000;" parent="1" vertex="1">
          <mxGeometry x="299.97" y="520" width="120" height="40" as="geometry" />
        </mxCell>
        <mxCell id="CGK39F_u_S3hTzvkllJn-27" value="" style="edgeStyle=orthogonalEdgeStyle;html=1;verticalAlign=bottom;endArrow=open;endSize=8;strokeColor=#ff0000;rounded=0;entryX=0.5;entryY=0;entryDx=0;entryDy=0;exitX=0.5;exitY=1;exitDx=0;exitDy=0;" parent="1" source="CGK39F_u_S3hTzvkllJn-18" target="CGK39F_u_S3hTzvkllJn-26" edge="1">
          <mxGeometry relative="1" as="geometry">
            <mxPoint x="370" y="450" as="targetPoint" />
            <mxPoint x="370" y="410" as="sourcePoint" />
            <Array as="points">
              <mxPoint x="360" y="500" />
              <mxPoint x="360" y="500" />
            </Array>
          </mxGeometry>
        </mxCell>
        <mxCell id="CGK39F_u_S3hTzvkllJn-28" value="Payment success" style="rhombus;whiteSpace=wrap;html=1;fontColor=#000000;fillColor=#ffffc0;strokeColor=#ff0000;" parent="1" vertex="1">
          <mxGeometry x="740.03" y="520" width="80" height="40" as="geometry" />
        </mxCell>
        <mxCell id="CGK39F_u_S3hTzvkllJn-29" value="no" style="edgeStyle=orthogonalEdgeStyle;html=1;align=left;verticalAlign=bottom;endArrow=open;endSize=8;strokeColor=#ff0000;rounded=0;entryX=0;entryY=0.5;entryDx=0;entryDy=0;" parent="1" source="CGK39F_u_S3hTzvkllJn-28" target="CGK39F_u_S3hTzvkllJn-37" edge="1">
          <mxGeometry x="-1" relative="1" as="geometry">
            <mxPoint x="870" y="540" as="targetPoint" />
          </mxGeometry>
        </mxCell>
        <mxCell id="CGK39F_u_S3hTzvkllJn-30" value="yes" style="edgeStyle=orthogonalEdgeStyle;html=1;align=left;verticalAlign=top;endArrow=open;endSize=8;strokeColor=#ff0000;rounded=0;" parent="1" source="CGK39F_u_S3hTzvkllJn-28" target="CGK39F_u_S3hTzvkllJn-34" edge="1">
          <mxGeometry x="-0.669" y="-10" relative="1" as="geometry">
            <mxPoint x="780.03" y="620" as="targetPoint" />
            <mxPoint as="offset" />
          </mxGeometry>
        </mxCell>
        <mxCell id="CGK39F_u_S3hTzvkllJn-31" value="" style="edgeStyle=orthogonalEdgeStyle;html=1;verticalAlign=bottom;endArrow=open;endSize=8;strokeColor=#ff0000;rounded=0;entryX=0;entryY=0.5;entryDx=0;entryDy=0;exitX=1;exitY=0.5;exitDx=0;exitDy=0;" parent="1" source="CGK39F_u_S3hTzvkllJn-26" target="CGK39F_u_S3hTzvkllJn-28" edge="1">
          <mxGeometry relative="1" as="geometry">
            <mxPoint x="330.03" y="450" as="targetPoint" />
            <mxPoint x="380" y="540" as="sourcePoint" />
            <Array as="points" />
          </mxGeometry>
        </mxCell>
        <mxCell id="CGK39F_u_S3hTzvkllJn-34" value="Send Payment successful" style="rounded=1;whiteSpace=wrap;html=1;arcSize=40;fontColor=#000000;fillColor=#ffffc0;strokeColor=#ff0000;" parent="1" vertex="1">
          <mxGeometry x="720.03" y="620" width="120" height="40" as="geometry" />
        </mxCell>
        <mxCell id="CGK39F_u_S3hTzvkllJn-37" value="Send Payment fail msg" style="rounded=1;whiteSpace=wrap;html=1;arcSize=40;fontColor=#000000;fillColor=#ffffc0;strokeColor=#ff0000;" parent="1" vertex="1">
          <mxGeometry x="870" y="520" width="120" height="40" as="geometry" />
        </mxCell>
        <mxCell id="CGK39F_u_S3hTzvkllJn-38" value="" style="ellipse;html=1;shape=endState;fillColor=#000000;strokeColor=#ff0000;" parent="1" vertex="1">
          <mxGeometry x="875" y="790" width="30" height="30" as="geometry" />
        </mxCell>
        <mxCell id="CGK39F_u_S3hTzvkllJn-39" value="" style="edgeStyle=orthogonalEdgeStyle;html=1;verticalAlign=bottom;endArrow=open;endSize=8;strokeColor=#ff0000;rounded=0;entryX=0.5;entryY=0;entryDx=0;entryDy=0;exitX=0.5;exitY=1;exitDx=0;exitDy=0;" parent="1" source="CGK39F_u_S3hTzvkllJn-37" target="CGK39F_u_S3hTzvkllJn-38" edge="1">
          <mxGeometry relative="1" as="geometry">
            <mxPoint x="904.29" y="770" as="targetPoint" />
            <mxPoint x="904.29" y="690" as="sourcePoint" />
          </mxGeometry>
        </mxCell>
        <mxCell id="CGK39F_u_S3hTzvkllJn-40" value="" style="edgeStyle=orthogonalEdgeStyle;html=1;verticalAlign=bottom;endArrow=open;endSize=8;strokeColor=#ff0000;rounded=0;entryX=0;entryY=0.5;entryDx=0;entryDy=0;exitX=0.5;exitY=1;exitDx=0;exitDy=0;" parent="1" source="CGK39F_u_S3hTzvkllJn-34" target="CGK39F_u_S3hTzvkllJn-38" edge="1">
          <mxGeometry relative="1" as="geometry">
            <mxPoint x="900" y="800" as="targetPoint" />
            <mxPoint x="940" y="570" as="sourcePoint" />
          </mxGeometry>
        </mxCell>
      </root>
    </mxGraphModel>
  </diagram>
</mxfile>
